<svg width="100%" height="100%" viewBox="0 0 400 400" xmlns="http://www.w3.org/2000/svg">
<rect x="0" y="0" width="50" height="50" class="dark-square"/>
<rect x="50" y="0" width="50" height="50" class="light-square"/>
<rect x="100" y="0" width="50" height="50" class="dark-square"/>
<rect x="150" y="0" width="50" height="50" class="light-square"/>
<rect x="200" y="0" width="50" height="50" class="dark-square"/>
<rect x="250" y="0" width="50" height="50" class="light-square"/>
<rect x="300" y="0" width="50" height="50" class="dark-square"/>
<rect x="350" y="0" width="50" height="50" class="light-square"/>
<rect x="0" y="50" width="50" height="50" class="light-square"/>
<rect x="50" y="50" width="50" height="50" class="dark-square"/>
<rect x="100" y="50" width="50" height="50" class="light-square"/>
<rect x="150" y="50" width="50" height="50" class="dark-square"/>
<rect x="200" y="50" width="50" height="50" class="light-square"/>
<rect x="250" y="50" width="50" height="50" class="dark-square"/>
<rect x="300" y="50" width="50" height="50" class="light-square"/>
<rect x="350" y="50" width="50" height="50" class="dark-square"/>
<rect x="0" y="100" width="50" height="50" class="dark-square"/>
<rect x="50" y="100" width="50" height="50" class="light-square"/>
<rect x="100" y="100" width="50" height="50" class="dark-square"/>
<rect x="150" y="100" width="50" height="50" class="light-square"/>
<rect x="200" y="100" width="50" height="50" class="dark-square"/>
<rect x="250" y="100" width="50" height="50" class="light-square"/>
<rect x="300" y="100" width="50" height="50" class="dark-square"/>
<rect x="350" y="100" width="50" height="50" class="light-square"/>
<rect x="0" y="150" width="50" height="50" class="light-square"/>
<rect x="50" y="150" width="50" height="50" class="dark-square"/>
<rect x="100" y="150" width="50" height="50" class="light-square"/>
<rect x="150" y="150" width="50" height="50" class="dark-square"/>
<rect x="200" y="150" width="50" height="50" class="light-square"/>
<rect x="250" y="150" width="50" height="50" class="dark-square"/>
<rect x="300" y="150" width="50" height="50" class="light-square"/>
<rect x="350" y="150" width="50" height="50" class="dark-square"/>
<rect x="0" y="200" width="50" height="50" class="dark-square"/>
<rect x="50" y="200" width="50" height="50" class="light-square"/>
<rect x="100" y="200" width="50" height="50" class="dark-square"/>
<rect x="150" y="200" width="50" height="50" class="light-square"/>
<rect x="200" y="200" width="50" height="50" class="dark-square"/>
<rect x="250" y="200" width="50" height="50" class="light-square"/>
<rect x="300" y="200" width="50" height="50" class="dark-square"/>
<rect x="350" y="200" width="50" height="50" class="light-square"/>
<rect x="0" y="250" width="50" height="50" class="light-square"/>
<rect x="50" y="250" width="50" height="50" class="dark-square"/>
<rect x="100" y="250" width="50" height="50" class="light-square"/>
<rect x="150" y="250" width="50" height="50" class="dark-square"/>
<rect x="200" y="250" width="50" height="50" class="light-square"/>
<rect x="250" y="250" width="50" height="50" class="dark-square"/>
<rect x="300" y="250" width="50" height="50" class="light-square"/>
<rect x="350" y="250" width="50" height="50" class="dark-square"/>
<rect x="0" y="300" width="50" height="50" class="dark-square"/>
<rect x="50" y="300" width="50" height="50" class="light-square"/>
<rect x="100" y="300" width="50" height="50" class="dark-square"/>
<rect x="150" y="300" width="50" height="50" class="light-square"/>
<rect x="200" y="300" width="50" height="50" class="dark-square"/>
<rect x="250" y="300" width="50" height="50" class="light-square"/>
<rect x="300" y="300" width="50" height="50" class="dark-square"/>
<rect x="350" y="300" width="50" height="50" class="light-square"/>
<rect x="0" y="350" width="50" height="50" class="light-square"/>
<rect x="50" y="350" width="50" height="50" class="dark-square"/>
<rect x="100" y="350" width="50" height="50" class="light-square"/>
<rect x="150" y="350" width="50" height="50" class="dark-square"/>
<rect x="200" y="350" width="50" height="50" class="light-square"/>
<rect x="250" y="350" width="50" height="50" class="dark-square"/>
<rect x="300" y="350" width="50" height="50" class="light-square"/>
<rect x="350" y="350" width="50" height="50" class="dark-square"/>
<text x="225" y="25" class="chess-piece" text-anchor="middle" dominant-baseline="central">♚</text>
<text x="25" y="375" class="chess-piece" text-anchor="middle" dominant-baseline="central">♖</text>
<text x="75" y="375" class="chess-piece" text-anchor="middle" dominant-baseline="central">♘</text>
<text x="225" y="375" class="chess-piece" text-anchor="middle" dominant-baseline="central">♔</text>
</svg>